<svg width="48" height="48" viewBox="0 0 48 48" fill="none" xmlns="http://www.w3.org/2000/svg">
<rect width="48" height="48" rx="4" fill="url(#paint0_linear_10786_582)"/>
<mask id="mask0_10786_582" style="mask-type:luminance" maskUnits="userSpaceOnUse" x="3" y="3" width="42" height="42">
<path d="M44.8076 24.1924C44.5356 23.1888 43.9904 22.2415 43.1696 21.4688C40.9912 19.417 37.5524 19.3619 35.3083 21.3433C33.2799 22.8183 30.5023 28.4743 26.0082 30.4135C25.9719 30.43 25.9379 30.4464 25.9027 30.464C26.1349 29.6737 26.4784 28.8249 26.9603 27.915C27.9358 26.0742 27.332 23.6883 25.7409 22.1523C24.205 20.5613 21.819 19.9575 19.9782 20.933C19.1341 21.3809 18.3415 21.7068 17.6005 21.9378C19.5444 17.4554 25.8828 13.7821 26.6613 12.6577C28.6099 10.4511 28.5959 7.07911 26.6238 4.89246C25.8183 3.99904 24.8112 3.41515 23.7419 3.13962C23.4335 3.0599 22.5166 2.96493 21.6326 3.013C20.806 3.05872 20.0099 3.2428 19.6687 3.31549C18.7565 3.5113 17.8608 3.76807 16.9896 4.08111C13.5426 5.31807 10.4531 7.44375 8.06246 10.2495C7.98391 10.3409 7.9077 10.4347 7.83149 10.5273C7.78693 10.5824 7.74121 10.6364 7.69783 10.6915C2.44869 17.1518 1.59748 25.9945 5.14888 33.2251C6.14313 35.2488 7.48092 37.1459 9.16341 38.8283C10.8178 40.4827 12.6785 41.8029 14.6623 42.7913L15.109 43.007C20.459 45.5149 26.6027 45.604 32.0441 43.3634L32.0675 43.3799C34.5977 42.3469 36.8407 40.8532 38.7225 39.0253C38.7916 38.9597 38.8632 38.8963 38.9323 38.8283C39.5057 38.2714 40.1576 37.4941 40.1576 37.4941C40.1412 37.5105 40.1259 37.5246 40.1095 37.541C42.4146 34.8244 44.0138 31.5473 44.7149 28.0205C44.7607 27.7907 44.8029 27.5586 44.8404 27.3264C44.9788 26.4799 45.1312 25.3919 44.8076 24.1924Z" fill="white"/>
</mask>
<g mask="url(#mask0_10786_582)">
<path d="M44.8416 27.3253C44.9799 26.4788 44.8498 24.346 44.8088 24.1913C44.5368 23.1876 43.9916 22.2403 43.1708 21.4676C40.9924 19.4158 37.5535 19.3607 35.3094 21.3422C31.8964 24.509 30.5035 28.4731 26.0094 30.4124C20.9397 32.599 29.29 41.4453 29.29 41.4453L32.0699 43.3775C38.7037 40.6691 43.369 34.8021 44.7173 28.0182C44.763 27.7884 44.8052 27.5563 44.8428 27.3241L44.8416 27.3253Z" fill="#1DDFFF"/>
<path d="M23.7419 3.13962C24.8112 3.41515 25.8171 3.99904 26.6238 4.89246C28.5947 7.07911 28.6088 10.4511 26.6613 12.6577C26.4585 12.8875 19.5304 17.4637 17.5911 21.9577C15.4045 27.0275 6.5582 18.6772 6.5582 18.6772L4.62598 15.8972C6.92518 10.2647 11.5048 6.04969 16.9896 4.08111C17.862 3.76807 18.7565 3.51247 19.6687 3.31549C20.0099 3.2428 20.806 3.05755 21.6326 3.013C22.5178 2.96493 23.4335 3.0599 23.7419 3.13962Z" fill="#1DDFFF"/>
<path d="M26.6612 12.6577C23.5577 16.1833 19.5303 17.4637 17.591 21.9577C15.4044 27.0275 6.55811 18.6772 6.55811 18.6772" fill="#1DDFFF"/>
<path d="M26.624 4.89247C28.5949 7.07912 28.6993 10.5332 26.6615 12.6577C23.4161 16.0415 19.5306 17.4637 17.5913 21.9577" fill="#1DDFFF"/>
<path d="M44.8417 27.3253C44.98 26.4787 45.0785 25.1245 44.8088 24.1913C44.5192 23.1923 43.9916 22.2403 43.1709 21.4676" fill="#1DDFFF"/>
<path d="M14.6635 42.7913C12.6797 41.8029 10.8179 40.4827 9.16467 38.8283C7.48218 37.1459 6.1444 35.2488 5.15015 33.2251L5.30257 33.1923C6.7447 32.9484 7.64985 32.599 9.05681 31.8545C10.8976 30.879 13.2835 31.4828 14.8195 33.0739C16.4105 34.6098 17.0143 36.9958 16.0388 38.8365C15.3014 40.2283 14.8887 41.4793 14.7011 42.5908L14.6647 42.7913H14.6635Z" fill="#3059EF"/>
<g filter="url(#filter0_d_10786_582)">
<path d="M40.1587 37.4941C40.1587 37.4941 39.5068 38.2714 38.9335 38.8283C32.3993 45.1784 22.9106 46.6639 15.1102 43.007L14.6634 42.7913L14.6998 42.5908C14.8874 41.4793 15.3001 40.2283 16.0376 38.8366C17.0131 36.9958 16.4092 34.6098 14.8182 33.0739C13.2823 31.4828 10.8963 30.879 9.05554 31.8545C7.64858 32.6002 6.74343 32.9496 5.3013 33.1923L5.14888 33.2251C1.28912 25.3637 2.6269 15.5959 9.16458 9.05941C9.58197 8.64201 10.0134 8.24689 10.4555 7.8717C4.41843 14.4528 9.45886 20.0267 9.45886 20.0267C9.45886 20.0267 12.8848 24.6907 19.9782 20.933C21.819 19.9575 24.205 20.5613 25.7409 22.1524C27.3319 23.6883 27.9358 26.0743 26.9603 27.915C23.2025 35.0073 27.8666 38.4344 27.8666 38.4344C27.8666 38.4344 33.3549 44.2991 40.1587 37.4953" fill="#1D81DB"/>
</g>
</g>
<defs>
<filter id="filter0_d_10786_582" x="-11.0007" y="-6.1283" width="77.1594" height="77.0984" filterUnits="userSpaceOnUse" color-interpolation-filters="sRGB">
<feFlood flood-opacity="0" result="BackgroundImageFix"/>
<feColorMatrix in="SourceAlpha" type="matrix" values="0 0 0 0 0 0 0 0 0 0 0 0 0 0 0 0 0 0 127 0" result="hardAlpha"/>
<feOffset dx="6" dy="6"/>
<feGaussianBlur stdDeviation="10"/>
<feColorMatrix type="matrix" values="0 0 0 0 0 0 0 0 0 0.0666667 0 0 0 0 0.356863 0 0 0 0.5 0"/>
<feBlend mode="normal" in2="BackgroundImageFix" result="effect1_dropShadow_10786_582"/>
<feBlend mode="normal" in="SourceGraphic" in2="effect1_dropShadow_10786_582" result="shape"/>
</filter>
<linearGradient id="paint0_linear_10786_582" x1="-7.5" y1="48" x2="55.5" y2="1.95578e-08" gradientUnits="userSpaceOnUse">
<stop stop-color="#072041"/>
<stop offset="0.5" stop-color="#041833"/>
<stop offset="1" stop-color="#154580"/>
</linearGradient>
</defs>
</svg>
